SplineFontDB: 3.2
FontName: AlphabetD
FullName: AlphabetD
FamilyName: AlphabetD
Weight: Regular
Copyright: Copyright (c) 2025, 
UComments: "2025-8-15: Created with FontForge (http://fontforge.org)"
Version: 001.000
ItalicAngle: 0
UnderlinePosition: -60
UnderlineWidth: 30
Ascent: 600
Descent: 0
InvalidEm: 0
LayerCount: 2
Layer: 0 0 "Back" 1
Layer: 1 0 "Fore" 0
XUID: [1021 528 -737890285 16270241]
FSType: 0
OS2Version: 0
OS2_WeightWidthSlopeOnly: 0
OS2_UseTypoMetrics: 1
CreationTime: 1755327341
ModificationTime: 1755399289
PfmFamily: 17
TTFWeight: 400
TTFWidth: 5
LineGap: 32
VLineGap: 0
OS2TypoAscent: 0
OS2TypoAOffset: 1
OS2TypoDescent: 0
OS2TypoDOffset: 1
OS2TypoLinegap: 32
OS2WinAscent: 0
OS2WinAOffset: 1
OS2WinDescent: 0
OS2WinDOffset: 1
HheadAscent: 0
HheadAOffset: 1
HheadDescent: 0
HheadDOffset: 1
OS2Vendor: 'PfEd'
Lookup: 1 0 0 "'liga' Standard Ligatures in Latin lookup 0" { "'liga' Standard Ligatures in Latin lookup 0 subtable"  } ['liga' ('latn' <'dflt' > 'DFLT' <'dflt' > ) ]
Lookup: 4 0 1 "'liga' Standard Ligatures in Latin lookup 1" { "'liga' Standard Ligatures in Latin lookup 1 subtable"  } ['liga' ('latn' <'dflt' > 'DFLT' <'dflt' > ) ]
MarkAttachClasses: 1
DEI: 91125
LangName: 1033
Encoding: Custom
Compacted: 1
UnicodeInterp: none
NameList: AGL For New Fonts
DisplaySize: -128
AntiAlias: 1
FitToEm: 0
BeginPrivate: 0
EndPrivate
Grid
-779.5 900 m 0
 -779.5 -300 l 1024
-600 790 m 0
 1200 790 l 1024
EndSplineSet
TeXData: 1 0 0 346030 173015 115343 0 1048576 115343 783286 444596 497025 792723 393216 433062 380633 303038 157286 324010 404750 52429 2506097 1059062 262144
BeginChars: 106 105

StartChar: _BASE
Encoding: 24 95 0
Width: 1150
Flags: HMW
LayerCount: 2
Fore
SplineSet
75 600 m 25
 125 600 l 25
 125 0 l 25
 75 0 l 29
 75 600 l 25
EndSplineSet
EndChar

StartChar: A
Encoding: 0 65 1
Width: 1150
Flags: HW
LayerCount: 2
Fore
SplineSet
75 600 m 25
 125 600 l 25
 125 0 l 25
 75 0 l 29
 75 600 l 25
EndSplineSet
EndChar

StartChar: C
Encoding: 2 67 2
Width: 1150
Flags: HW
LayerCount: 2
Fore
SplineSet
75 600 m 25
 125 600 l 25
 125 0 l 25
 75 0 l 29
 75 600 l 25
EndSplineSet
EndChar

StartChar: E
Encoding: 4 69 3
Width: 1150
Flags: HW
LayerCount: 2
Fore
SplineSet
75 600 m 25
 125 600 l 25
 125 0 l 25
 75 0 l 29
 75 600 l 25
EndSplineSet
EndChar

StartChar: F
Encoding: 5 70 4
Width: 1150
Flags: HW
LayerCount: 2
Fore
SplineSet
75 600 m 25
 125 600 l 25
 125 0 l 25
 75 0 l 29
 75 600 l 25
EndSplineSet
EndChar

StartChar: H
Encoding: 7 72 5
Width: 1150
Flags: HW
LayerCount: 2
Fore
SplineSet
75 600 m 25
 125 600 l 25
 125 0 l 25
 75 0 l 29
 75 600 l 25
EndSplineSet
EndChar

StartChar: I
Encoding: 8 73 6
Width: 1150
Flags: HW
LayerCount: 2
Fore
SplineSet
75 600 m 25
 125 600 l 25
 125 0 l 25
 75 0 l 29
 75 600 l 25
EndSplineSet
EndChar

StartChar: K
Encoding: 10 75 7
Width: 1150
Flags: HW
LayerCount: 2
Fore
SplineSet
75 600 m 25
 125 600 l 25
 125 0 l 25
 75 0 l 29
 75 600 l 25
EndSplineSet
EndChar

StartChar: L
Encoding: 11 76 8
Width: 1150
Flags: HW
LayerCount: 2
Fore
SplineSet
75 600 m 25
 125 600 l 25
 125 0 l 25
 75 0 l 29
 75 600 l 25
EndSplineSet
EndChar

StartChar: M
Encoding: 12 77 9
Width: 1150
Flags: HW
LayerCount: 2
Fore
SplineSet
75 600 m 25
 125 600 l 25
 125 0 l 25
 75 0 l 29
 75 600 l 25
EndSplineSet
EndChar

StartChar: N
Encoding: 13 78 10
Width: 1150
Flags: HW
LayerCount: 2
Fore
SplineSet
75 600 m 25
 125 600 l 25
 125 0 l 25
 75 0 l 29
 75 600 l 25
EndSplineSet
EndChar

StartChar: O
Encoding: 14 79 11
Width: 1150
Flags: HW
LayerCount: 2
Fore
SplineSet
75 600 m 25
 125 600 l 25
 125 0 l 25
 75 0 l 29
 75 600 l 25
EndSplineSet
EndChar

StartChar: P
Encoding: 15 80 12
Width: 1150
Flags: HW
LayerCount: 2
Fore
SplineSet
75 600 m 25
 125 600 l 25
 125 0 l 25
 75 0 l 29
 75 600 l 25
EndSplineSet
EndChar

StartChar: R
Encoding: 16 82 13
Width: 1150
Flags: HW
LayerCount: 2
Fore
SplineSet
75 600 m 25
 125 600 l 25
 125 0 l 25
 75 0 l 29
 75 600 l 25
EndSplineSet
EndChar

StartChar: S
Encoding: 17 83 14
Width: 1150
Flags: HW
LayerCount: 2
Fore
SplineSet
75 600 m 25
 125 600 l 25
 125 0 l 25
 75 0 l 29
 75 600 l 25
EndSplineSet
EndChar

StartChar: T
Encoding: 18 84 15
Width: 1150
Flags: HW
LayerCount: 2
Fore
SplineSet
75 600 m 25
 125 600 l 25
 125 0 l 25
 75 0 l 29
 75 600 l 25
EndSplineSet
EndChar

StartChar: U
Encoding: 19 85 16
Width: 1150
Flags: HW
LayerCount: 2
Fore
SplineSet
75 600 m 25
 125 600 l 25
 125 0 l 25
 75 0 l 29
 75 600 l 25
EndSplineSet
EndChar

StartChar: W
Encoding: 21 87 17
Width: 1150
Flags: HW
LayerCount: 2
Fore
SplineSet
75 600 m 25
 125 600 l 25
 125 0 l 25
 75 0 l 29
 75 600 l 25
EndSplineSet
EndChar

StartChar: Y
Encoding: 22 89 18
Width: 1150
Flags: HW
LayerCount: 2
Fore
SplineSet
75 600 m 25
 125 600 l 25
 125 0 l 25
 75 0 l 29
 75 600 l 25
EndSplineSet
EndChar

StartChar: B
Encoding: 1 66 19
Width: 1150
Flags: HW
LayerCount: 2
Fore
SplineSet
75 600 m 25
 125 600 l 25
 125 0 l 25
 75 0 l 29
 75 600 l 25
EndSplineSet
EndChar

StartChar: D
Encoding: 3 68 20
Width: 1150
Flags: HW
LayerCount: 2
Fore
SplineSet
75 600 m 25
 125 600 l 25
 125 0 l 25
 75 0 l 29
 75 600 l 25
EndSplineSet
EndChar

StartChar: G
Encoding: 6 71 21
Width: 1150
Flags: HW
LayerCount: 2
Fore
SplineSet
75 600 m 25
 125 600 l 25
 125 0 l 25
 75 0 l 29
 75 600 l 25
EndSplineSet
EndChar

StartChar: J
Encoding: 9 74 22
Width: 1150
Flags: HW
LayerCount: 2
Fore
SplineSet
75 600 m 25
 125 600 l 25
 125 0 l 25
 75 0 l 29
 75 600 l 25
EndSplineSet
EndChar

StartChar: V
Encoding: 20 86 23
Width: 1150
Flags: HW
LayerCount: 2
Fore
SplineSet
75 600 m 25
 125 600 l 25
 125 0 l 25
 75 0 l 29
 75 600 l 25
EndSplineSet
EndChar

StartChar: Z
Encoding: 23 90 24
Width: 1150
Flags: HW
LayerCount: 2
Fore
SplineSet
75 600 m 25
 125 600 l 25
 125 0 l 25
 75 0 l 29
 75 600 l 25
EndSplineSet
EndChar

StartChar: Eacute
Encoding: 25 201 25
Width: 1150
Flags: HW
LayerCount: 2
Fore
SplineSet
75 600 m 25
 125 600 l 25
 125 0 l 25
 75 0 l 29
 75 600 l 25
EndSplineSet
Ligature2: "'liga' Standard Ligatures in Latin lookup 1 subtable" E special
EndChar

StartChar: Iacute
Encoding: 26 205 26
Width: 1150
Flags: HW
LayerCount: 2
Fore
SplineSet
75 600 m 25
 125 600 l 25
 125 0 l 25
 75 0 l 29
 75 600 l 25
EndSplineSet
Ligature2: "'liga' Standard Ligatures in Latin lookup 1 subtable" I special
EndChar

StartChar: Oacute
Encoding: 28 211 27
Width: 1150
Flags: HW
LayerCount: 2
Fore
SplineSet
75 600 m 25
 125 600 l 25
 125 0 l 25
 75 0 l 29
 75 600 l 25
EndSplineSet
Ligature2: "'liga' Standard Ligatures in Latin lookup 1 subtable" O special
EndChar

StartChar: Uacute
Encoding: 29 218 28
Width: 1150
Flags: HW
LayerCount: 2
Fore
SplineSet
75 600 m 25
 125 600 l 25
 125 0 l 25
 75 0 l 29
 75 600 l 25
EndSplineSet
Ligature2: "'liga' Standard Ligatures in Latin lookup 1 subtable" U special
EndChar

StartChar: Edh
Encoding: 27 208 29
Width: 1150
Flags: HW
LayerCount: 2
Fore
SplineSet
75 600 m 25
 125 600 l 25
 125 0 l 25
 75 0 l 29
 75 600 l 25
EndSplineSet
Ligature2: "'liga' Standard Ligatures in Latin lookup 1 subtable" D special
EndChar

StartChar: Thorn
Encoding: 30 222 30
Width: 1150
Flags: HW
LayerCount: 2
Fore
SplineSet
75 600 m 25
 125 600 l 25
 125 0 l 25
 75 0 l 29
 75 600 l 25
EndSplineSet
Ligature2: "'liga' Standard Ligatures in Latin lookup 1 subtable" T special
EndChar

StartChar: Eng
Encoding: 31 330 31
Width: 1150
Flags: HW
LayerCount: 2
Fore
SplineSet
75 600 m 25
 125 600 l 25
 125 0 l 25
 75 0 l 29
 75 600 l 25
EndSplineSet
Ligature2: "'liga' Standard Ligatures in Latin lookup 1 subtable" N special
EndChar

StartChar: Esh
Encoding: 32 346 32
Width: 1150
Flags: HW
LayerCount: 2
Fore
SplineSet
75 600 m 25
 125 600 l 25
 125 0 l 25
 75 0 l 29
 75 600 l 25
EndSplineSet
Ligature2: "'liga' Standard Ligatures in Latin lookup 1 subtable" S special
EndChar

StartChar: Zhed
Encoding: 33 377 33
Width: 1150
Flags: HW
LayerCount: 2
Fore
SplineSet
75 600 m 25
 125 600 l 25
 125 0 l 25
 75 0 l 29
 75 600 l 25
EndSplineSet
Ligature2: "'liga' Standard Ligatures in Latin lookup 1 subtable" Z special
EndChar

StartChar: Udoubleacute
Encoding: 34 368 34
Width: 1150
Flags: HW
LayerCount: 2
Fore
SplineSet
75 600 m 25
 125 600 l 25
 125 0 l 25
 75 0 l 29
 75 600 l 25
EndSplineSet
Ligature2: "'liga' Standard Ligatures in Latin lookup 1 subtable" U special special
EndChar

StartChar: emphasis
Encoding: 35 39 35
Width: 1150
Flags: HW
LayerCount: 2
Fore
SplineSet
75 600 m 25
 125 600 l 25
 125 0 l 25
 75 0 l 29
 75 600 l 25
EndSplineSet
EndChar

StartChar: a
Encoding: 36 97 36
Width: 1150
Flags: HW
LayerCount: 2
Fore
SplineSet
75 600 m 25
 125 600 l 25
 125 0 l 25
 75 0 l 29
 75 600 l 25
EndSplineSet
Substitution2: "'liga' Standard Ligatures in Latin lookup 0 subtable" A
EndChar

StartChar: b
Encoding: 37 98 37
Width: 1150
Flags: HW
LayerCount: 2
Fore
SplineSet
75 600 m 25
 125 600 l 25
 125 0 l 25
 75 0 l 29
 75 600 l 25
EndSplineSet
Substitution2: "'liga' Standard Ligatures in Latin lookup 0 subtable" B
EndChar

StartChar: c
Encoding: 38 99 38
Width: 1150
Flags: HW
LayerCount: 2
Fore
SplineSet
75 600 m 25
 125 600 l 25
 125 0 l 25
 75 0 l 29
 75 600 l 25
EndSplineSet
Substitution2: "'liga' Standard Ligatures in Latin lookup 0 subtable" C
EndChar

StartChar: d
Encoding: 39 100 39
Width: 1150
Flags: HW
LayerCount: 2
Fore
SplineSet
75 600 m 25
 125 600 l 25
 125 0 l 25
 75 0 l 29
 75 600 l 25
EndSplineSet
Substitution2: "'liga' Standard Ligatures in Latin lookup 0 subtable" D
EndChar

StartChar: e
Encoding: 40 101 40
Width: 1150
Flags: HW
LayerCount: 2
Fore
SplineSet
75 600 m 25
 125 600 l 25
 125 0 l 25
 75 0 l 29
 75 600 l 25
EndSplineSet
Substitution2: "'liga' Standard Ligatures in Latin lookup 0 subtable" E
EndChar

StartChar: f
Encoding: 41 102 41
Width: 1150
Flags: HW
LayerCount: 2
Fore
SplineSet
75 600 m 25
 125 600 l 25
 125 0 l 25
 75 0 l 29
 75 600 l 25
EndSplineSet
Substitution2: "'liga' Standard Ligatures in Latin lookup 0 subtable" F
EndChar

StartChar: g
Encoding: 42 103 42
Width: 1150
Flags: HW
LayerCount: 2
Fore
SplineSet
75 600 m 25
 125 600 l 25
 125 0 l 25
 75 0 l 29
 75 600 l 25
EndSplineSet
Substitution2: "'liga' Standard Ligatures in Latin lookup 0 subtable" G
EndChar

StartChar: h
Encoding: 43 104 43
Width: 1150
Flags: HW
LayerCount: 2
Fore
SplineSet
75 600 m 25
 125 600 l 25
 125 0 l 25
 75 0 l 29
 75 600 l 25
EndSplineSet
Substitution2: "'liga' Standard Ligatures in Latin lookup 0 subtable" H
EndChar

StartChar: i
Encoding: 44 105 44
Width: 1150
Flags: HW
LayerCount: 2
Fore
SplineSet
75 600 m 25
 125 600 l 25
 125 0 l 25
 75 0 l 29
 75 600 l 25
EndSplineSet
Substitution2: "'liga' Standard Ligatures in Latin lookup 0 subtable" I
EndChar

StartChar: j
Encoding: 45 106 45
Width: 1150
Flags: HW
LayerCount: 2
Fore
SplineSet
75 600 m 25
 125 600 l 25
 125 0 l 25
 75 0 l 29
 75 600 l 25
EndSplineSet
Substitution2: "'liga' Standard Ligatures in Latin lookup 0 subtable" J
EndChar

StartChar: k
Encoding: 46 107 46
Width: 1150
Flags: HW
LayerCount: 2
Fore
SplineSet
75 600 m 25
 125 600 l 25
 125 0 l 25
 75 0 l 29
 75 600 l 25
EndSplineSet
Substitution2: "'liga' Standard Ligatures in Latin lookup 0 subtable" K
EndChar

StartChar: l
Encoding: 47 108 47
Width: 1150
Flags: HW
LayerCount: 2
Fore
SplineSet
75 600 m 25
 125 600 l 25
 125 0 l 25
 75 0 l 29
 75 600 l 25
EndSplineSet
Substitution2: "'liga' Standard Ligatures in Latin lookup 0 subtable" L
EndChar

StartChar: m
Encoding: 48 109 48
Width: 1150
Flags: HW
LayerCount: 2
Fore
SplineSet
75 600 m 25
 125 600 l 25
 125 0 l 25
 75 0 l 29
 75 600 l 25
EndSplineSet
Substitution2: "'liga' Standard Ligatures in Latin lookup 0 subtable" M
EndChar

StartChar: n
Encoding: 49 110 49
Width: 1150
Flags: HW
LayerCount: 2
Fore
SplineSet
75 600 m 25
 125 600 l 25
 125 0 l 25
 75 0 l 29
 75 600 l 25
EndSplineSet
Substitution2: "'liga' Standard Ligatures in Latin lookup 0 subtable" N
EndChar

StartChar: o
Encoding: 50 111 50
Width: 1150
Flags: HW
LayerCount: 2
Fore
SplineSet
75 600 m 25
 125 600 l 25
 125 0 l 25
 75 0 l 29
 75 600 l 25
EndSplineSet
Substitution2: "'liga' Standard Ligatures in Latin lookup 0 subtable" O
EndChar

StartChar: p
Encoding: 51 112 51
Width: 1150
Flags: HW
LayerCount: 2
Fore
SplineSet
75 600 m 25
 125 600 l 25
 125 0 l 25
 75 0 l 29
 75 600 l 25
EndSplineSet
Substitution2: "'liga' Standard Ligatures in Latin lookup 0 subtable" P
EndChar

StartChar: r
Encoding: 52 114 52
Width: 1150
Flags: HW
LayerCount: 2
Fore
SplineSet
75 600 m 25
 125 600 l 25
 125 0 l 25
 75 0 l 29
 75 600 l 25
EndSplineSet
Substitution2: "'liga' Standard Ligatures in Latin lookup 0 subtable" R
EndChar

StartChar: s
Encoding: 53 115 53
Width: 1150
Flags: HW
LayerCount: 2
Fore
SplineSet
75 600 m 25
 125 600 l 25
 125 0 l 25
 75 0 l 29
 75 600 l 25
EndSplineSet
Substitution2: "'liga' Standard Ligatures in Latin lookup 0 subtable" S
EndChar

StartChar: t
Encoding: 54 116 54
Width: 1150
Flags: HW
LayerCount: 2
Fore
SplineSet
75 600 m 25
 125 600 l 25
 125 0 l 25
 75 0 l 29
 75 600 l 25
EndSplineSet
Substitution2: "'liga' Standard Ligatures in Latin lookup 0 subtable" T
EndChar

StartChar: u
Encoding: 55 117 55
Width: 1150
Flags: HW
LayerCount: 2
Fore
SplineSet
75 600 m 25
 125 600 l 25
 125 0 l 25
 75 0 l 29
 75 600 l 25
EndSplineSet
Substitution2: "'liga' Standard Ligatures in Latin lookup 0 subtable" U
EndChar

StartChar: v
Encoding: 56 118 56
Width: 1150
Flags: HW
LayerCount: 2
Fore
SplineSet
75 600 m 25
 125 600 l 25
 125 0 l 25
 75 0 l 29
 75 600 l 25
EndSplineSet
Substitution2: "'liga' Standard Ligatures in Latin lookup 0 subtable" V
EndChar

StartChar: w
Encoding: 57 119 57
Width: 1150
Flags: HW
LayerCount: 2
Fore
SplineSet
75 600 m 25
 125 600 l 25
 125 0 l 25
 75 0 l 29
 75 600 l 25
EndSplineSet
Substitution2: "'liga' Standard Ligatures in Latin lookup 0 subtable" W
EndChar

StartChar: y
Encoding: 58 121 58
Width: 1150
Flags: HW
LayerCount: 2
Fore
SplineSet
75 600 m 25
 125 600 l 25
 125 0 l 25
 75 0 l 29
 75 600 l 25
EndSplineSet
Substitution2: "'liga' Standard Ligatures in Latin lookup 0 subtable" Y
EndChar

StartChar: z
Encoding: 59 122 59
Width: 1150
Flags: HW
LayerCount: 2
Fore
SplineSet
75 600 m 25
 125 600 l 25
 125 0 l 25
 75 0 l 29
 75 600 l 25
EndSplineSet
Substitution2: "'liga' Standard Ligatures in Latin lookup 0 subtable" Z
EndChar

StartChar: special
Encoding: 60 59 60
Width: 1150
Flags: HW
LayerCount: 2
Fore
SplineSet
75 600 m 25
 125 600 l 25
 125 0 l 25
 75 0 l 29
 75 600 l 25
EndSplineSet
EndChar

StartChar: space
Encoding: 61 32 61
Width: 1150
Flags: HW
LayerCount: 2
Fore
SplineSet
75 600 m 25
 125 600 l 25
 125 0 l 25
 75 0 l 29
 75 600 l 25
EndSplineSet
EndChar

StartChar: stop
Encoding: 62 46 62
Width: 1150
Flags: HW
LayerCount: 2
Fore
SplineSet
75 600 m 25
 125 600 l 25
 125 0 l 25
 75 0 l 29
 75 600 l 25
EndSplineSet
EndChar

StartChar: comma
Encoding: 63 44 63
Width: 1150
Flags: HW
LayerCount: 2
Fore
SplineSet
75 600 m 25
 125 600 l 25
 125 0 l 25
 75 0 l 29
 75 600 l 25
EndSplineSet
EndChar

StartChar: question
Encoding: 64 63 64
Width: 1150
Flags: HW
LayerCount: 2
Fore
SplineSet
75 600 m 25
 125 600 l 25
 125 0 l 25
 75 0 l 29
 75 600 l 25
EndSplineSet
EndChar

StartChar: ellipsis
Encoding: 65 -1 65
Width: 1150
Flags: HW
LayerCount: 2
Fore
SplineSet
75 600 m 25
 125 600 l 25
 125 0 l 25
 75 0 l 29
 75 600 l 25
EndSplineSet
EndChar

StartChar: hyphen
Encoding: 66 45 66
Width: 1150
Flags: HW
LayerCount: 2
Fore
SplineSet
75 600 m 25
 125 600 l 25
 125 0 l 25
 75 0 l 29
 75 600 l 25
EndSplineSet
EndChar

StartChar: A_emphasis
Encoding: 68 -1 67
Width: 1150
VWidth: 0
Flags: HW
LayerCount: 2
Fore
SplineSet
75 600 m 25
 125 600 l 25
 125 0 l 25
 75 0 l 29
 75 600 l 25
75 600 m 25
 125 600 l 25
 125 0 l 25
 75 0 l 29
 75 600 l 25
EndSplineSet
EndChar

StartChar: B_emphasis
Encoding: 69 -1 68
Width: 1150
VWidth: 0
Flags: HW
LayerCount: 2
Fore
SplineSet
75 600 m 25
 125 600 l 25
 125 0 l 25
 75 0 l 29
 75 600 l 25
75 600 m 25
 125 600 l 25
 125 0 l 25
 75 0 l 29
 75 600 l 25
EndSplineSet
EndChar

StartChar: C_emphasis
Encoding: 70 -1 69
Width: 1150
VWidth: 0
Flags: HW
LayerCount: 2
Fore
SplineSet
75 600 m 25
 125 600 l 25
 125 0 l 25
 75 0 l 29
 75 600 l 25
75 600 m 25
 125 600 l 25
 125 0 l 25
 75 0 l 29
 75 600 l 25
EndSplineSet
EndChar

StartChar: D_emphasis
Encoding: 71 -1 70
Width: 1150
VWidth: 0
Flags: HW
LayerCount: 2
Fore
SplineSet
75 600 m 25
 125 600 l 25
 125 0 l 25
 75 0 l 29
 75 600 l 25
75 600 m 25
 125 600 l 25
 125 0 l 25
 75 0 l 29
 75 600 l 25
EndSplineSet
EndChar

StartChar: E_emphasis
Encoding: 72 -1 71
Width: 1150
Flags: HW
LayerCount: 2
Fore
SplineSet
75 600 m 25
 125 600 l 25
 125 0 l 25
 75 0 l 29
 75 600 l 25
75 600 m 25
 125 600 l 25
 125 0 l 25
 75 0 l 29
 75 600 l 25
EndSplineSet
EndChar

StartChar: F_emphasis
Encoding: 73 -1 72
Width: 1150
VWidth: 0
Flags: HW
LayerCount: 2
Fore
SplineSet
75 600 m 25
 125 600 l 25
 125 0 l 25
 75 0 l 29
 75 600 l 25
75 600 m 25
 125 600 l 25
 125 0 l 25
 75 0 l 29
 75 600 l 25
EndSplineSet
EndChar

StartChar: G_emphasis
Encoding: 74 -1 73
Width: 1150
VWidth: 0
Flags: HW
LayerCount: 2
Fore
SplineSet
75 600 m 25
 125 600 l 25
 125 0 l 25
 75 0 l 29
 75 600 l 25
75 600 m 25
 125 600 l 25
 125 0 l 25
 75 0 l 29
 75 600 l 25
EndSplineSet
EndChar

StartChar: H_emphasis
Encoding: 75 -1 74
Width: 1150
VWidth: 0
Flags: HW
LayerCount: 2
Fore
SplineSet
75 600 m 25
 125 600 l 25
 125 0 l 25
 75 0 l 29
 75 600 l 25
75 600 m 25
 125 600 l 25
 125 0 l 25
 75 0 l 29
 75 600 l 25
EndSplineSet
EndChar

StartChar: I_emphasis
Encoding: 76 -1 75
Width: 1150
Flags: HW
LayerCount: 2
Fore
SplineSet
75 600 m 25
 125 600 l 25
 125 0 l 25
 75 0 l 29
 75 600 l 25
75 600 m 25
 125 600 l 25
 125 0 l 25
 75 0 l 29
 75 600 l 25
EndSplineSet
EndChar

StartChar: J_emphasis
Encoding: 77 -1 76
Width: 1150
VWidth: 0
Flags: HW
LayerCount: 2
Fore
SplineSet
75 600 m 25
 125 600 l 25
 125 0 l 25
 75 0 l 29
 75 600 l 25
75 600 m 25
 125 600 l 25
 125 0 l 25
 75 0 l 29
 75 600 l 25
EndSplineSet
EndChar

StartChar: K_emphasis
Encoding: 78 -1 77
Width: 1150
VWidth: 0
Flags: HW
LayerCount: 2
Fore
SplineSet
75 600 m 25
 125 600 l 25
 125 0 l 25
 75 0 l 29
 75 600 l 25
75 600 m 25
 125 600 l 25
 125 0 l 25
 75 0 l 29
 75 600 l 25
EndSplineSet
EndChar

StartChar: L_emphasis
Encoding: 79 -1 78
Width: 1150
VWidth: 0
Flags: HW
LayerCount: 2
Fore
SplineSet
75 600 m 25
 125 600 l 25
 125 0 l 25
 75 0 l 29
 75 600 l 25
75 600 m 25
 125 600 l 25
 125 0 l 25
 75 0 l 29
 75 600 l 25
EndSplineSet
EndChar

StartChar: M_emphasis
Encoding: 80 -1 79
Width: 1150
VWidth: 0
Flags: HW
LayerCount: 2
Fore
SplineSet
75 600 m 25
 125 600 l 25
 125 0 l 25
 75 0 l 29
 75 600 l 25
75 600 m 25
 125 600 l 25
 125 0 l 25
 75 0 l 29
 75 600 l 25
EndSplineSet
EndChar

StartChar: N_emphasis
Encoding: 81 -1 80
Width: 1150
VWidth: 0
Flags: HW
LayerCount: 2
Fore
SplineSet
75 600 m 25
 125 600 l 25
 125 0 l 25
 75 0 l 29
 75 600 l 25
75 600 m 25
 125 600 l 25
 125 0 l 25
 75 0 l 29
 75 600 l 25
EndSplineSet
EndChar

StartChar: O_emphasis
Encoding: 82 -1 81
Width: 1150
Flags: HW
LayerCount: 2
Fore
SplineSet
75 600 m 25
 125 600 l 25
 125 0 l 25
 75 0 l 29
 75 600 l 25
75 600 m 25
 125 600 l 25
 125 0 l 25
 75 0 l 29
 75 600 l 25
EndSplineSet
EndChar

StartChar: P_emphasis
Encoding: 83 -1 82
Width: 1150
VWidth: 0
Flags: HW
LayerCount: 2
Fore
SplineSet
75 600 m 25
 125 600 l 25
 125 0 l 25
 75 0 l 29
 75 600 l 25
75 600 m 25
 125 600 l 25
 125 0 l 25
 75 0 l 29
 75 600 l 25
EndSplineSet
EndChar

StartChar: R_emphasis
Encoding: 84 -1 83
Width: 1150
VWidth: 0
Flags: HW
LayerCount: 2
Fore
SplineSet
75 600 m 25
 125 600 l 25
 125 0 l 25
 75 0 l 29
 75 600 l 25
75 600 m 25
 125 600 l 25
 125 0 l 25
 75 0 l 29
 75 600 l 25
EndSplineSet
EndChar

StartChar: S_emphasis
Encoding: 85 -1 84
Width: 1150
VWidth: 0
Flags: HW
LayerCount: 2
Fore
SplineSet
75 600 m 25
 125 600 l 25
 125 0 l 25
 75 0 l 29
 75 600 l 25
75 600 m 25
 125 600 l 25
 125 0 l 25
 75 0 l 29
 75 600 l 25
EndSplineSet
EndChar

StartChar: T_emphasis
Encoding: 86 -1 85
Width: 1150
Flags: HW
LayerCount: 2
Fore
SplineSet
75 600 m 25
 125 600 l 25
 125 0 l 25
 75 0 l 29
 75 600 l 25
75 600 m 25
 125 600 l 25
 125 0 l 25
 75 0 l 29
 75 600 l 25
EndSplineSet
EndChar

StartChar: U_emphasis
Encoding: 87 -1 86
Width: 1150
Flags: HW
LayerCount: 2
Fore
SplineSet
75 600 m 25
 125 600 l 25
 125 0 l 25
 75 0 l 29
 75 600 l 25
75 600 m 25
 125 600 l 25
 125 0 l 25
 75 0 l 29
 75 600 l 25
EndSplineSet
EndChar

StartChar: V_emphasis
Encoding: 88 -1 87
Width: 1150
VWidth: 0
Flags: HW
LayerCount: 2
Fore
SplineSet
75 600 m 25
 125 600 l 25
 125 0 l 25
 75 0 l 29
 75 600 l 25
75 600 m 25
 125 600 l 25
 125 0 l 25
 75 0 l 29
 75 600 l 25
EndSplineSet
EndChar

StartChar: W_emphasis
Encoding: 89 -1 88
Width: 1150
VWidth: 0
Flags: HW
LayerCount: 2
Fore
SplineSet
75 600 m 25
 125 600 l 25
 125 0 l 25
 75 0 l 29
 75 600 l 25
75 600 m 25
 125 600 l 25
 125 0 l 25
 75 0 l 29
 75 600 l 25
EndSplineSet
EndChar

StartChar: Y_emphasis
Encoding: 90 -1 89
Width: 1150
VWidth: 0
Flags: HW
LayerCount: 2
Fore
SplineSet
75 600 m 25
 125 600 l 25
 125 0 l 25
 75 0 l 29
 75 600 l 25
75 600 m 25
 125 600 l 25
 125 0 l 25
 75 0 l 29
 75 600 l 25
EndSplineSet
EndChar

StartChar: Z_emphasis
Encoding: 91 -1 90
Width: 1150
Flags: HW
LayerCount: 2
Fore
SplineSet
75 600 m 25
 125 600 l 25
 125 0 l 25
 75 0 l 29
 75 600 l 25
75 600 m 25
 125 600 l 25
 125 0 l 25
 75 0 l 29
 75 600 l 25
EndSplineSet
EndChar

StartChar: d_emphasis
Encoding: 92 -1 91
Width: 1150
Flags: HW
LayerCount: 2
Fore
SplineSet
75 600 m 25
 125 600 l 25
 125 0 l 25
 75 0 l 29
 75 600 l 25
75 600 m 25
 125 600 l 25
 125 0 l 25
 75 0 l 29
 75 600 l 25
EndSplineSet
EndChar

StartChar: h_emphasis
Encoding: 93 -1 92
Width: 1150
Flags: HW
LayerCount: 2
Fore
SplineSet
75 600 m 25
 125 600 l 25
 125 0 l 25
 75 0 l 29
 75 600 l 25
75 600 m 25
 125 600 l 25
 125 0 l 25
 75 0 l 29
 75 600 l 25
EndSplineSet
EndChar

StartChar: a_emphasis
Encoding: 94 -1 93
Width: 1150
Flags: HW
LayerCount: 2
Fore
SplineSet
75 600 m 25
 125 600 l 25
 125 0 l 25
 75 0 l 29
 75 600 l 25
75 600 m 25
 125 600 l 25
 125 0 l 25
 75 0 l 29
 75 600 l 25
EndSplineSet
EndChar

StartChar: c_emphasis
Encoding: 95 -1 94
Width: 1150
Flags: HW
LayerCount: 2
Fore
SplineSet
75 600 m 25
 125 600 l 25
 125 0 l 25
 75 0 l 29
 75 600 l 25
75 600 m 25
 125 600 l 25
 125 0 l 25
 75 0 l 29
 75 600 l 25
EndSplineSet
EndChar

StartChar: u_emphasis
Encoding: 96 -1 95
Width: 1150
Flags: HW
LayerCount: 2
Fore
SplineSet
75 600 m 25
 125 600 l 25
 125 0 l 25
 75 0 l 29
 75 600 l 25
75 600 m 25
 125 600 l 25
 125 0 l 25
 75 0 l 29
 75 600 l 25
EndSplineSet
EndChar

StartChar: t_emphasis
Encoding: 97 -1 96
Width: 1150
Flags: HW
LayerCount: 2
Fore
SplineSet
75 600 m 25
 125 600 l 25
 125 0 l 25
 75 0 l 29
 75 600 l 25
75 600 m 25
 125 600 l 25
 125 0 l 25
 75 0 l 29
 75 600 l 25
EndSplineSet
EndChar

StartChar: e_emphasis
Encoding: 98 -1 97
Width: 1150
Flags: HW
LayerCount: 2
Fore
SplineSet
75 600 m 25
 125 600 l 25
 125 0 l 25
 75 0 l 29
 75 600 l 25
75 600 m 25
 125 600 l 25
 125 0 l 25
 75 0 l 29
 75 600 l 25
EndSplineSet
EndChar

StartChar: n_emphasis
Encoding: 99 -1 98
Width: 1150
Flags: HW
LayerCount: 2
Fore
SplineSet
75 600 m 25
 125 600 l 25
 125 0 l 25
 75 0 l 29
 75 600 l 25
75 600 m 25
 125 600 l 25
 125 0 l 25
 75 0 l 29
 75 600 l 25
EndSplineSet
EndChar

StartChar: g_emphasis
Encoding: 100 -1 99
Width: 1150
VWidth: 0
Flags: HW
LayerCount: 2
Fore
SplineSet
75 600 m 25
 125 600 l 25
 125 0 l 25
 75 0 l 29
 75 600 l 25
75 600 m 25
 125 600 l 25
 125 0 l 25
 75 0 l 29
 75 600 l 25
EndSplineSet
EndChar

StartChar: s_emphasis
Encoding: 101 -1 100
Width: 1150
VWidth: 0
Flags: HW
LayerCount: 2
Fore
SplineSet
75 600 m 25
 125 600 l 25
 125 0 l 25
 75 0 l 29
 75 600 l 25
75 600 m 25
 125 600 l 25
 125 0 l 25
 75 0 l 29
 75 600 l 25
EndSplineSet
EndChar

StartChar: o_emphasis
Encoding: 102 -1 101
Width: 1150
Flags: HW
LayerCount: 2
Fore
SplineSet
75 600 m 25
 125 600 l 25
 125 0 l 25
 75 0 l 29
 75 600 l 25
75 600 m 25
 125 600 l 25
 125 0 l 25
 75 0 l 29
 75 600 l 25
EndSplineSet
EndChar

StartChar: r_emphasis
Encoding: 103 -1 102
Width: 1150
VWidth: 0
Flags: HW
LayerCount: 2
Fore
SplineSet
75 600 m 25
 125 600 l 25
 125 0 l 25
 75 0 l 29
 75 600 l 25
75 600 m 25
 125 600 l 25
 125 0 l 25
 75 0 l 29
 75 600 l 25
EndSplineSet
EndChar

StartChar: b_emphasis
Encoding: 104 -1 103
Width: 1150
VWidth: 0
Flags: HW
LayerCount: 2
Fore
SplineSet
75 600 m 25
 125 600 l 25
 125 0 l 25
 75 0 l 29
 75 600 l 25
75 600 m 25
 125 600 l 25
 125 0 l 25
 75 0 l 29
 75 600 l 25
EndSplineSet
EndChar

StartChar: l_emphasis
Encoding: 105 -1 104
Width: 1150
VWidth: 0
Flags: HW
LayerCount: 2
Fore
SplineSet
75 600 m 25
 125 600 l 25
 125 0 l 25
 75 0 l 29
 75 600 l 25
75 600 m 25
 125 600 l 25
 125 0 l 25
 75 0 l 29
 75 600 l 25
EndSplineSet
EndChar
